# xmcd
# 
# Track frame offsets:
#     150
#     16073
#     35760
#     56900
#     63223
#     83438
#     102695
#     124075
#     150630
#     170300
#     185773
#     202218
#     220973
#     244625
# 
# Disc length: 3312
# 
# Revision: 7
# Processed by: cddbd v1.5.2PL0 Copyright (c) Steve Scherf et al.
# Submitted via: fre:ac v1.0.31
# 
DISCID=c40cee0e
DTITLE=YELLOW MAGIC ORCHESTRA - SERVICE
DYEAR=1983
DGENRE=Techno
TTITLE0=Limbo
TTITLE1=S.E.T. 1
TTITLE2=The Madmen
TTITLE3=S.E.T. 2
TTITLE4=Chinese Whispers
TTITLE5=S.E.T. 3
TTITLE6=You've Got To Help Yourself
TTITLE7=S.E.T. 4 and YMO
TTITLE8=Shadows on the Ground
TTITLE9=S.E.T. 5
TTITLE10=See-Through
TTITLE11=S.E.T. 6
TTITLE12=Perspective
TTITLE13=S.E.T. 7
EXTD=1983.12.14
EXTT0=
EXTT1=
EXTT2=
EXTT3=
EXTT4=
EXTT5=
EXTT6=
EXTT7=
EXTT8=
EXTT9=
EXTT10=
EXTT11=
EXTT12=
EXTT13=
PLAYORDER=
